<svg id="Layer_1" data-name="Layer 1" xmlns="http://www.w3.org/2000/svg" xmlns:xlink="http://www.w3.org/1999/xlink" viewBox="0 0 803.76 356.47"><defs><style>.cls-1{fill:#ebe7f4;}.cls-2{fill:#8a7da9;}.cls-3{fill:#645883;}.cls-4{fill:#622e39;}.cls-5{fill:#f05f7d;}.cls-6{fill:#e7ad7b;}.cls-7{fill:#564068;}.cls-8{fill:#463353;}.cls-9{fill:#6f4570;}.cls-10{fill:#f27794;}.cls-11{fill:#ac424d;}.cls-12{fill:#bb5156;}.cls-13{fill:#edb881;}.cls-14{fill:url(#linear-gradient);}.cls-15{fill:#a56053;}.cls-16{fill:url(#linear-gradient-2);}.cls-17{fill:none;stroke:#64371a;stroke-linecap:round;stroke-miterlimit:10;stroke-width:0.57px;}.cls-18{fill:#994e23;}.cls-19{fill:url(#linear-gradient-3);}.cls-20{fill:#f5a29e;}.cls-21{fill:#f8c88c;}</style><linearGradient id="linear-gradient" x1="395.79" y1="8.4" x2="391.99" y2="10.77" gradientTransform="translate(22.78 16.82) rotate(14.55)" gradientUnits="userSpaceOnUse"><stop offset="0" stop-color="#d48279"/><stop offset="1" stop-color="#f5b8ad" stop-opacity="0"/></linearGradient><linearGradient id="linear-gradient-2" x1="-108.8" y1="122.45" x2="-106.04" y2="131.81" gradientTransform="matrix(-0.97, 0.25, 0.25, 0.97, 275.12, 16.82)" gradientUnits="userSpaceOnUse"><stop offset="0" stop-color="#da9d68"/><stop offset="1" stop-color="#da9d68" stop-opacity="0"/></linearGradient><linearGradient id="linear-gradient-3" x1="14380.05" y1="-3639.35" x2="14382.81" y2="-3629.99" gradientTransform="translate(-14446.34 16.82) rotate(14.55)" xlink:href="#linear-gradient-2"/></defs><path class="cls-1" d="M397.31,127.37c-31.43,6.19-78.26-29.25-115.67-5.83-49.11,30.73-47,117.61,29.26,154.33s189.91,4.48,230.71-85.21C584,97.44,517.61,72.1,488.18,81.37,451.14,93.05,440,119,397.31,127.37Z"/><path class="cls-1" d="M523,228c-14.33,24.07,2,33.23,17.41,11.86s19.3-39.3,13.05-41.54C545.22,195.36,532.9,211.38,523,228Z"/><circle class="cls-1" cx="555.24" cy="187.28" r="6.19"/><ellipse class="cls-1" cx="469.29" cy="78.5" rx="16.74" ry="6.92" transform="translate(3.09 173.62) rotate(-21.03)"/><ellipse class="cls-1" cx="257.98" cy="119.11" rx="25.05" ry="13.04" transform="translate(-7.76 219.73) rotate(-45.52)"/><path class="cls-1" d="M243.56,155.15a6.87,6.87,0,1,1-6.86-6.87A6.86,6.86,0,0,1,243.56,155.15Z"/><path class="cls-2" d="M532.31,235.8a21.51,21.51,0,0,1,2-1,20.8,20.8,0,0,1,5.49-1c4-.15,9.29,1.15,9.33,1.44s-1.89-.07-4.09.12c-.89.08-4.34.7-6.87,1.09A15.85,15.85,0,0,1,532.31,235.8Z"/><path class="cls-2" d="M523.17,234.8c.37-.56,1.22-1.82,1.66-2.32a29,29,0,0,1,5.65-4.74c4.31-2.68,10.64-4.27,10.79-3.91s-2.1,1.08-4.44,2.71c-1,.66-4.51,3.63-7.15,5.73a16.24,16.24,0,0,1-5.85,2.62c2.76.39,5.54.79,8.26,1.32l-.26-.33a21.67,21.67,0,0,1,3.66,1h0l.24.09.07,0,.08,0,.74.3h0l.24.11.05,0,.23.1.07,0,.21.1.08,0,.2.1.1.05.18.1.12.07.16.09.14.08.14.09.17.1.11.07.27.18h0c2.26,1.58,5.13,3.66,6.87,4.87.14.11.28.2.41.29l.78.53,0,0,2.7,1.48.69.33c.6.29,1.07.51,1.36.67l.14.09a.44.44,0,0,1,.12.11.06.06,0,0,1,0,.05c-.11.38-6.88-1.11-11.7-3.78a35.54,35.54,0,0,1-6.49-4.78,21.8,21.8,0,0,1-1.46-1.66l-2.1-.28-6.3-.88a11.73,11.73,0,0,1,3.48,3.87c1.35,2.75,3.1,6.6,3.64,7.5,1.31,2.24,2.92,3.69,2.69,3.89s-5.31-3.18-7.9-7a22.59,22.59,0,0,1-2.77-6.13,20.62,20.62,0,0,1-.3-2.3l-7.47-1a12.72,12.72,0,0,1,3.83,4.95c1.16,3.22,2.64,7.69,3.12,8.76,1.2,2.62,2.83,4.38,2.55,4.59s-5.62-4-8.05-8.49a24.26,24.26,0,0,1-2.33-7.13,25.49,25.49,0,0,1,0-2.79c-3-.38-6-.73-9-1l-.87-.09c1,.76,3.72,3,4.75,5.81,1.28,3.47,2.89,8.3,3.42,9.45,1.31,2.84,3.09,4.73,2.78,5s-6.09-4.29-8.75-9.15a26.09,26.09,0,0,1-2.55-7.7,32.66,32.66,0,0,1,0-3.41q-4.44-.45-8.88-.83a15.37,15.37,0,0,1,4.58,6.37c1.24,4,2.77,9.54,3.3,10.87,1.31,3.26,3.21,5.47,2.85,5.72-.52.35-6.67-5.08-9.38-10.69a29.07,29.07,0,0,1-2.42-8.85,30.54,30.54,0,0,1,.14-3.49q-4.31-.36-8.62-.65c1.25,1.05,4.29,3.85,5.32,7.26,1.32,4.32,2.94,10.34,3.51,11.77,1.39,3.54,3.44,5.94,3,6.21-.56.38-7.19-5.52-10.09-11.61a31.31,31.31,0,0,1-2.56-9.58,39.72,39.72,0,0,1,.2-4.09c-1.57-.1-3.13-.2-4.7-.28l-3.5-.19c1.09,1,4.29,4.39,5,8.28.89,4.72,1.92,11.27,2.36,12.84,1.08,3.88,3,6.59,2.54,6.85-.65.37-7.08-6.38-9.48-13.09A32.49,32.49,0,0,1,476,235.66a42.17,42.17,0,0,1,.72-4.47c-3.41-.16-6.83-.3-10.24-.4,1.29,1.33,3.88,4.33,4.52,7.77.85,4.64,1.83,11.08,2.25,12.63,1.05,3.82,4.12,7.55,3.67,7.81-.65.36-8.13-7.36-10.46-14a31.81,31.81,0,0,1-1.52-10.26,36.16,36.16,0,0,1,.65-4q-4.51-.12-9-.17c1.36,1.39,3.89,4.37,4.54,7.78.89,4.72,1.92,11.27,2.36,12.84,1.08,3.89,5.19,9.41,4.73,9.67-.66.37-9.27-9.2-11.67-15.91a32.49,32.49,0,0,1-1.61-10.43,34.8,34.8,0,0,1,.62-4c-3.42,0-6.84,0-10.26,0,1.27,1.28,4,4.33,4.59,7.84.86,4.64,1.84,11.08,2.26,12.62,1,3.82,5.8,11.22,5.35,11.47-.64.36-9.82-11-12.14-17.62a32.11,32.11,0,0,1-1.53-10.25,36.24,36.24,0,0,1,.67-4.07c-3,0-5.9,0-8.85-.08,1.14,1.25,3.4,4.11,3.82,7.31.57,4.32,3.89,11.45,4.21,12.89.78,3.56,6.45,13.48,6,13.7-.62.32-12.92-14.54-14.75-20.71a29,29,0,0,1-.92-9.54,36,36,0,0,1,.79-3.67l-4-.1c-2.22-.08-4.44-.17-6.67-.31a21.63,21.63,0,0,1,4.24,7.11,86.7,86.7,0,0,0,5.38,11.66c1.63,3.15,6.29,13.05,6.39,13.5,1.3,6.21-13.69-13.47-15.8-19.36a28.87,28.87,0,0,1-1.41-9.17,36,36,0,0,1,.61-3.77,114.47,114.47,0,0,1-17-2.17c-.73-.16-.37-.83.35-.71l3,.46c4.64.73,9.33,1.21,14,1.52a32.28,32.28,0,0,1-.49-3.53c0-1.13-.7-6.22.7-9.86,2.21-5.77,14.67-21.91,16.17-21.48,1.69.47-4.91,10.59-7.08,17.61-.42,1.36-2.76,6.08-4.29,10.67a18,18,0,0,1-4.14,6.64c3.18.2,6.37.32,9.55.4h1a35.16,35.16,0,0,1-.57-3.85,29,29,0,0,1,1.54-9.44c2.24-6,11.58-20.93,12.17-20.56.42.26-3.6,12.57-4.61,16.06-.41,1.41-2.58,6.47-3.43,10.74-.65,3.24-3.2,6-4.39,7.07,3.19,0,6.38.07,9.57.08a40.57,40.57,0,0,1-.43-4.43,31.29,31.29,0,0,1,2.21-10.1c2.76-6.39,8.83-17.48,10.76-17.57,0,0-2.28,8.27-3.57,12-.53,1.5-1.94,7.84-3.11,12.4-.95,3.74-4.26,6.75-5.41,7.71,3.47,0,6.94,0,10.41.05a40.14,40.14,0,0,1-.24-4.43A32.1,32.1,0,0,1,459,215.15c3.05-6.38,8.43-15.32,9-14.89.42.3-.09,5.71-1.55,9.43-.59,1.51-2.28,7.87-3.65,12.44-1.11,3.68-4.47,6.6-5.73,7.59l2,0c2,0,4,.07,6,.13a39.49,39.49,0,0,1-.4-4.22A31.62,31.62,0,0,1,467,215.55c2.76-6.39,9.82-14.94,10.43-14.53.44.3-1.95,5.24-3.24,9-.53,1.51-1.94,7.85-3.1,12.4-.9,3.52-3.89,6.39-5.19,7.52,3.37.1,6.75.23,10.12.39a36.26,36.26,0,0,1-.21-4,32.35,32.35,0,0,1,2.66-10.13c3.06-6.39,9.59-14,10.2-13.59.43.3-1.24,4.4-2.7,8.13-.6,1.51-2.29,7.87-3.66,12.43-1,3.31-3.79,6-5.27,7.23,2.39.13,4.79.26,7.18.42l2.63.18a35.34,35.34,0,0,1,.12-3.8,31.12,31.12,0,0,1,3.3-9.33c3.36-5.81,10.43-11.1,11-10.68.37.3-1.85,2.52-3.52,5.92-.68,1.38-2.76,7.23-4.41,11.43-1.19,3.05-4.06,5.44-5.53,6.52,2.65.19,5.29.41,7.94.64A32,32,0,0,1,496,228a29.29,29.29,0,0,1,3.55-8.5c3.42-5.25,10.23-9.93,10.7-9.52s-1.84,2.26-3.57,5.35c-.7,1.25-2.94,6.58-4.69,10.4-1.32,2.89-4.27,5.07-5.63,6q4,.36,8.07.78a27.61,27.61,0,0,1,.38-2.87,26.41,26.41,0,0,1,3.4-7.39c3.19-4.55,9.33-8.52,9.72-8.16s-1.69,1.95-3.31,4.63c-.66,1.09-2.81,5.72-4.47,9a14,14,0,0,1-4.73,4.86c1.24.13,2.48.26,3.72.41,1.72.19,3.44.4,5.16.62a19.36,19.36,0,0,1,5.9-9.05c3.95-3.72,10.49-6.56,10.77-6.18s-2,1.56-4.1,3.78c-.85.9-3.88,4.82-6.16,7.62a15.6,15.6,0,0,1-5.7,3.91q3.3.42,6.59.88Z"/><path class="cls-2" d="M276.27,114.6a18,18,0,0,0-1-1.66,18.09,18.09,0,0,0-3.55-3.24c-2.83-1.93-7.31-3.42-7.47-3.23s1.41.81,2.93,2c.61.47,2.85,2.5,4.52,3.95A13.63,13.63,0,0,0,276.27,114.6Z"/><path class="cls-2" d="M283.41,118.06c0-.58-.06-1.89-.15-2.46a25.51,25.51,0,0,0-1.95-6c-1.93-3.93-5.82-8-6.09-7.8s1,1.75,2,4c.39.92,1.63,4.72,2.59,7.46a13.86,13.86,0,0,0,3.08,4.6c-2.2-1-4.42-2-6.65-2.82l.34-.12a18.26,18.26,0,0,0-3.11-1h0l-.22,0h-.05l-.08,0-.67-.12h0l-.23,0h-.05l-.21,0h-.06l-.2,0h-.09l-.19,0H270c-2.37.12-5.42.33-7.25.42l-.43,0-.81,0h-.05l-2.65-.15-.66-.08c-.57-.06-1-.12-1.29-.13h-.15l-.14,0,0,0c-.09.33,5.54,2.34,10.28,2.61a31.17,31.17,0,0,0,6.93-.51c.42-.09,1.19-.34,1.83-.55l1.66.76,5,2.25a10,10,0,0,0-4.32,1.22c-2.25,1.4-5.29,3.4-6.1,3.82-2,1-3.82,1.35-3.75,1.6s5.34.12,9-1.48a19.44,19.44,0,0,0,4.83-3.21,19.32,19.32,0,0,0,1.28-1.54l5.9,2.71a11,11,0,0,0-5.06,1.86c-2.33,1.81-5.46,4.41-6.3,5-2.08,1.37-4.08,1.9-4,2.19s5.93-.33,9.77-2.51a20.43,20.43,0,0,0,5-4.14c.34-.42,1-1.44,1.31-2q3.56,1.65,7.08,3.38l.68.34a12.49,12.49,0,0,0-6.13,2.06c-2.53,2-5.92,4.74-6.84,5.33-2.25,1.47-4.42,2-4.3,2.35s6.42-.34,10.58-2.67a22.12,22.12,0,0,0,5.4-4.46,24.85,24.85,0,0,0,1.59-2.46c2.3,1.13,4.59,2.29,6.87,3.46a13.37,13.37,0,0,0-6.27,2.55c-2.73,2.35-6.4,5.7-7.39,6.42-2.45,1.79-4.86,2.53-4.7,2.88s7.19-.65,11.75-3.51a24.7,24.7,0,0,0,5.82-5.35,27,27,0,0,0,1.5-2.61c2.21,1.14,4.4,2.3,6.59,3.48-1.39.19-4.9.84-7.21,2.85-3,2.56-6.89,6.21-8,7-2.64,1.94-5.24,2.76-5.07,3.13.24.54,7.78-.73,12.69-3.85a27.12,27.12,0,0,0,6.27-5.82,33.25,33.25,0,0,0,1.72-3.07l3.57,1.94,2.64,1.48c-1.28.26-5.14,1.23-7.47,3.73-2.82,3-6.57,7.35-7.61,8.3-2.58,2.34-5.22,3.43-5,3.83.31.57,8.1-1.41,12.93-5.21a27.94,27.94,0,0,0,6-6.88,36,36,0,0,0,1.52-3.59c2.57,1.45,5.12,2.91,7.66,4.41-1.55.37-4.82,1.37-6.86,3.6-2.76,3-6.42,7.25-7.44,8.18-2.51,2.31-6.47,3.63-6.26,4,.31.55,9.32-1.65,14-5.41a27.52,27.52,0,0,0,5.82-6.79,32.07,32.07,0,0,0,1.36-3.23q3.36,2,6.67,4a14.42,14.42,0,0,0-6.88,3.61c-2.82,3-6.57,7.34-7.61,8.29-2.58,2.34-8.11,4.49-7.89,4.89.31.57,11-2.46,15.82-6.26a28.12,28.12,0,0,0,6-6.89,31.4,31.4,0,0,0,1.36-3.17c2.51,1.54,5,3.11,7.51,4.67-1.51.36-4.87,1.36-6.95,3.62-2.75,3-6.42,7.25-7.44,8.19-2.51,2.31-9.38,5.53-9.16,5.92.3.56,12.22-3.54,16.94-7.3a27.52,27.52,0,0,0,5.82-6.79,33.51,33.51,0,0,0,1.38-3.27c2.16,1.34,4.32,2.68,6.5,4a12.89,12.89,0,0,0-6.15,3.59c-2.39,2.9-8.09,6.58-9,7.49-2.21,2.24-10.89,6.88-10.68,7.24s16.1-4.69,20.27-8.36a25.23,25.23,0,0,0,5-6.54,30.47,30.47,0,0,0,1.1-3.05l2.94,1.75c1.65,1,3.33,1.91,5,2.84a18.26,18.26,0,0,0-6.35,3.24,75.51,75.51,0,0,1-9.28,6c-2.63,1.56-10.58,6.65-10.86,6.93-3.8,3.94,16.18-3.55,20.42-6.89a24.67,24.67,0,0,0,5.23-6,29.33,29.33,0,0,0,1.29-3,99,99,0,0,0,13.38,6.19c.61.22.65-.44.07-.68l-2.41-1c-3.73-1.6-7.37-3.4-10.95-5.33a28.57,28.57,0,0,0,2-2.35c.54-.82,3.37-4.23,4-7.52,1-5.23-.66-22.73-2-23.11s-1.27,10-2.9,16.11c-.32,1.18-.78,5.71-1.76,9.76a15.5,15.5,0,0,0,0,6.75c-2.41-1.31-4.8-2.69-7.16-4.1l-.73-.44a32.59,32.59,0,0,0,2.18-2.55,24.76,24.76,0,0,0,3.2-7.6c1.13-5.41,1.15-20.6.55-20.6-.42,0-3.14,10.83-4,13.85a78.16,78.16,0,0,1-2.42,9.41,12.69,12.69,0,0,0,0,7.17c-2.35-1.42-4.69-2.87-7-4.32a38,38,0,0,0,2.35-3,27.36,27.36,0,0,0,3-8.39c.92-5.93,1.57-16.81.2-17.77,0,0-2.13,7.09-2.89,10.4-.31,1.34-2.18,6.62-3.42,10.48-1,3.17,0,6.89.42,8.11-2.54-1.58-5.08-3.17-7.63-4.74a33.35,33.35,0,0,0,2.21-3.12,27.86,27.86,0,0,0,2.71-8.62c.69-6.06.86-15.06.22-15-.45,0-2.55,4.21-3.19,7.6-.26,1.37-1.94,6.79-3,10.76-.88,3.19.23,6.86.7,8.17-.5-.31-1-.62-1.51-.92-1.47-.9-3-1.79-4.45-2.67a32.53,32.53,0,0,0,2.23-2.9,27.19,27.19,0,0,0,3-8.39c.92-5.93-.31-15.41-.95-15.39-.45,0-1,4.71-1.74,8-.31,1.34-2.19,6.61-3.42,10.47-1,3-.1,6.45.34,7.87q-3.76-2.2-7.58-4.35a31.37,31.37,0,0,0,2-2.84,28.06,28.06,0,0,0,2.71-8.62c.69-6.07-.58-14.64-1.22-14.6-.45,0-1.11,3.78-1.75,7.17-.26,1.38-1.94,6.8-3,10.76a14.39,14.39,0,0,0,.54,7.7q-2.71-1.51-5.44-3l-2-1.08a28.87,28.87,0,0,0,1.65-2.83,26.68,26.68,0,0,0,1.87-8.32c.21-5.79-2.52-12.89-3.1-12.83-.41,0,.2,2.69-.15,5.94-.13,1.32-1.29,6.55-2,10.36a14.29,14.29,0,0,0,1,7.31c-2-1.08-4-2.13-6.09-3.18a27.44,27.44,0,0,0,1.43-2.8,25.34,25.34,0,0,0,1.31-7.83c-.09-5.41-2.92-11.94-3.45-11.86s.31,2.5.15,5.54c-.06,1.24-.87,6.16-1.35,9.75a13.83,13.83,0,0,0,1.38,6.93c-2.07-1.06-4.16-2.1-6.25-3.13a20.65,20.65,0,0,0,1-2.27,22.55,22.55,0,0,0,.91-7c-.24-4.78-2.9-10.5-3.36-10.41s.34,2.2.3,4.9c0,1.09-.58,5.46-.88,8.64a12,12,0,0,0,1.22,5.72l-2.9-1.4-4.05-1.92a24.86,24.86,0,0,0,.48-2.53,24.36,24.36,0,0,0-.64-6.78c-1.18-4.53-4.65-9.6-5-9.45s.75,2,1.26,4.64c.21,1,.62,5.3,1,8.39a13.49,13.49,0,0,0,2.36,5.47q-2.6-1.22-5.21-2.38Z"/><path class="cls-3" d="M481.84,190.32c2.54-3.47-.83-9.62-5.94-13.36-6.49-4.75-17.63-6.36-20.79-6.73-.4-.17-.8-.34-1.22-.49a15.72,15.72,0,0,0-2.42-.65,9.68,9.68,0,0,0-1.22-.16c.41-.46,3.15-3.41,3.76-4,1.06,0,2.13-.12,3.18-.09l1.12,0c2.8,2.13,12.13,8.94,18.92,10.55,5,1.2,10.41-.68,11.29-4.36s-3.71-7.93-9.13-9.21c-7.12-1.69-18.71,1.45-21.36,2.22h-.16a22.69,22.69,0,0,0-3.07.06c.95-.95,6.88-6.58,8.33-7.93,1.07-.18,2.12-.53,3.18-.75l.15,0c3.2,1.31,12.8,5,19.28,4.54,4.91-.34,9.43-3.87,9.2-7.16s-5.58-5.6-10.86-5.23c-6.68.46-15.5,5.47-18,7a14.92,14.92,0,0,0-1.57.38c.67-.63,3.77-3.78,6.77-6.88,3.49-1.69,12.42-6.29,16.4-11,3.12-3.67,4.07-8.72,1.67-10.76s-7.63.14-11,4.09c-4.13,4.84-7.24,14.14-8.21,17.26-2.51,2.46-6.39,6.22-6.32,6,.23-.59.53-1.66.7-2.27,0-.09.05-.18.07-.26,1.61-3.07,5.8-11.55,6.12-17.62.25-4.7-2-9.18-5-9.34s-5.75,4.64-6,9.7a40,40,0,0,0,3.89,17.85c-.23.93-.44,1.87-.7,2.78l-.7.64c-1.49,1.34-7.12,6.51-7.87,7.23a26,26,0,0,0,.57-3c1.21-3.91,4.05-14.23,2.78-21.15-1-5.43-5.1-12.38-8.82-11.69s-5.53,9.41-4.46,15.24c1.43,7.81,8.35,17,9.75,18.85a22.92,22.92,0,0,1-1.07,3c-.48.47-3.72,3.81-4.07,4.19a10.49,10.49,0,0,0,0-1.11,14.86,14.86,0,0,0-.18-2.21c-.29-3.27-1.7-12.71-8.72-23.79-3.56-5.61-9-7.41-12.5-4.87s-3.72,7.93.5,13.7c5.34,7.29,16.61,13.88,19.88,15.69.08.53.12,1.06.15,1.6a8,8,0,0,0,.12,1.76l-1,1.19a5.13,5.13,0,0,0-.71-.5,4.6,4.6,0,0,0-.63-.31c-.88-1.71-3.51-6.26-7.69-8.52-3.26-1.77-9.83-3.23-11.12-.86s1.08,6.17,4.58,8.07c4.66,2.52,12.61,2.12,14.25,2a3.65,3.65,0,0,1,.34.18c.2.12.38.27.57.41-1.35,1.6-3.29,3.94-4.16,5.1-1.53,2-21.43,29.7-21.83,30.16-1.59,1.87.17,2.38.74,1.59.32-.45,20.59-28.18,21.93-30,.77-1,2.83-3.58,4.38-5.47.16.17.32.34.46.52a8,8,0,0,1,.72,1c-.1,2.26-.19,8.39,1.58,12.09,1.38,2.88,4.87,5.61,7,4.61s.47-6.93-1-10c-1.82-3.81-5.75-6.48-7.05-7.29a8.37,8.37,0,0,0-.68-.89c-.14-.15-.33-.38-.55-.58l1.47-1.77c.55.12,1.12.19,1.67.31a15.36,15.36,0,0,1,2.64.86l.24.11c1.29,2.34,7.64,13.46,14.43,18.43C473.68,192.49,479.29,193.8,481.84,190.32Z"/><path class="cls-3" d="M345.86,278.19c-4.13-1.24-5.14-8.18-3.31-14.24,2.32-7.7,10.25-15.69,12.54-17.89.21-.38.44-.76.68-1.13a15.55,15.55,0,0,1,1.54-2,8,8,0,0,1,.88-.86c-.6-.13-4.57-.84-5.44-1-.86.63-1.77,1.19-2.59,1.84-.3.23-.58.47-.87.71-1,3.39-4.3,14.44-8.75,19.82-3.3,4-8.72,5.73-11.64,3.32s-1.81-8.56,1.74-12.86c4.66-5.63,15.81-10.1,18.39-11.08l.13-.11a25.07,25.07,0,0,1,2.48-1.8c-1.32-.19-9.45-1.1-11.42-1.3-1,.5-2,.85-3,1.31l-.14.07c-1.76,3-7.21,11.69-12.65,15.23-4.13,2.69-9.86,2.59-11.66-.18s1.08-7.82,5.51-10.71c5.62-3.65,15.67-5,18.58-5.28.47-.23,1-.45,1.48-.64-.92-.09-5.29-.75-9.55-1.42-3.81.76-13.7,2.47-19.69,1.14-4.71-1.05-8.5-4.51-7.82-7.59s6.18-4.48,11.23-3.35c6.22,1.38,14.31,6.92,17,8.83,3.49.45,8.84,1.11,8.67,1-.54-.33-1.43-1-1.93-1.39l-.21-.17c-3.14-1.47-11.58-5.72-15.5-10.37-3-3.6-4-8.5-1.67-10.44s7.39.24,10.61,4.15c5.3,6.42,7.19,14.34,7.65,16.59.73.6,1.47,1.22,2.22,1.8l.94.08c2,.18,9.62.91,10.65,1a25.92,25.92,0,0,1-2.27-2.05c-3.31-2.39-11.8-8.91-14.95-15.21-2.48-4.92-3.39-12.95,0-14.64s10.08,4.18,12.74,9.48C350,224,350,235.58,350,237.86a22.3,22.3,0,0,0,2.63,1.72c.67.09,5.27.8,5.78.89a10.57,10.57,0,0,1-.7-.86,15.21,15.21,0,0,1-1.18-1.88c-1.74-2.78-6.3-11.17-7.37-24.24-.54-6.63,2.74-11.35,7-11.42s7.74,4.09,7.84,11.24c.13,9-4.89,21.08-6.41,24.5.26.47.54.92.84,1.36a7.57,7.57,0,0,1,1,1.49L361,241a4.25,4.25,0,0,1,.27-.83,5.12,5.12,0,0,1,.31-.62c-.33-1.9-1-7.11,1-11.44,1.54-3.37,5.91-8.5,8.37-7.38s2.85,5.58,1.2,9.2c-2.2,4.82-8.79,9.29-10.17,10.19-.05.11-.11.23-.16.35s-.13.44-.2.67c2,.47,5,1.16,6.39,1.56,2.43.69,35,10.8,35.59,10.93,2.4.53,1.3,2,.36,1.71-.52-.16-33.4-10.09-35.56-10.73-1.25-.37-4.41-1.15-6.79-1.72a5.36,5.36,0,0,0-.06.69,8.85,8.85,0,0,0,.05,1.26c1.45,1.75,5.21,6.58,6,10.6.64,3.13-.5,7.42-2.79,7.88s-4.54-5.25-5.22-8.61c-.84-4.14.68-8.64,1.24-10.07a6,6,0,0,1,0-1.12,6.83,6.83,0,0,1,.09-.79l-2.24-.53c-.37.43-.79.83-1.15,1.26a14.91,14.91,0,0,0-1.59,2.27,1.71,1.71,0,0,1-.13.23c.38,2.65,2,15.35-.41,23.41C353.68,275,350,279.43,345.86,278.19Z"/><path class="cls-3" d="M420.49,245.7c12.47-11,27.71-11,38.83-4.68,13.72,7.83,19.84,24.15,30.49,35.81-13.09-1.45-31.57,5.32-48.73-2.54C422.6,265.82,420.49,245.7,420.49,245.7Z"/><path class="cls-2" d="M450.88,277.33l1,.15-1.33-19.78,15.72-11.55-.72-.64-16,11.74Z"/><path class="cls-2" d="M436.7,252.34l2.56,21c.33.18.67.34,1,.51l-2.57-21.15,16.75-14c-.34-.12-.69-.25-1-.36Z"/><path class="cls-2" d="M461.26,262.54l-.21.16,1.67,15.45.95,0-1.62-15c3.78-2.92,9-6.89,11.43-8.72-.19-.25-.37-.5-.56-.74C471.25,254.87,468,257.37,461.26,262.54Z"/><path class="cls-2" d="M474.41,277.35l.94-.09-.58-8.17,6.5-3.44-.53-.78-6.95,3.68Z"/><path class="cls-2" d="M437.68,237.23c-.56.09-1.12.21-1.67.34l-10.17,10.2.11,13c.3.49.62,1,.95,1.48l-.12-14Z"/><path class="cls-2" d="M420.49,245.7c5.07,1.78,10.08,3.71,15.07,5.68s9.95,4.06,14.9,6.15,9.83,4.31,14.68,6.64,9.66,4.71,14.33,7.36c-2.44-1.13-4.85-2.3-7.3-3.39s-4.88-2.23-7.33-3.31q-7.35-3.29-14.76-6.44c-4.91-2.16-9.86-4.22-14.79-6.34Z"/><path class="cls-3" d="M368.75,152.45c-16.24,3.55-29.58-3.81-36.23-14.74-8.21-13.5-5.64-30.74-9.3-46.11,10.75,7.62,30.19,10.66,41.38,25.86C376.66,133.82,368.75,152.45,368.75,152.45Z"/><path class="cls-2" d="M357.5,110.05c-.25-.21-.5-.4-.76-.6l-8.43,17.94L329,129.87c.1.3.2.6.31.91l19.66-2.52Z"/><path class="cls-2" d="M357.79,138.78l8-19.65c-.2-.31-.42-.62-.64-.93l-8,19.75L335.68,142c.24.28.48.55.73.82Z"/><path class="cls-2" d="M341.26,118l.26,0,6-14.32-.84-.44-5.86,13.9c-4.72.72-11.19,1.69-14.23,2.08.05.31.09.62.14.93C328.8,119.81,332.9,119.22,341.26,118Z"/><path class="cls-2" d="M336.93,98.62l-.86-.38-3.45,7.42-7.35-.14c0,.31.05.63.08.94l7.87.16Z"/><path class="cls-2" d="M349.6,151.52c.54.19,1.08.36,1.63.51l13.84-4,6.19-11.38c0-.58-.07-1.17-.12-1.76l-6.71,12.34Z"/><path class="cls-2" d="M368.75,152.45c-3.57-4-7-8.14-10.43-12.28s-6.73-8.37-10-12.6-6.52-8.55-9.63-12.93-6.16-8.8-9-13.39c1.59,2.17,3.12,4.37,4.74,6.51s3.19,4.32,4.81,6.45q4.85,6.44,9.78,12.78c3.25,4.28,6.58,8.48,9.86,12.73Z"/><path class="cls-3" d="M346.6,189.37c-2,9.72-9.24,15.21-16.82,16.19-9.35,1.21-18.13-4.37-27.4-6.1,6.75-4,13.13-13.88,24.13-16.31C338.36,180.54,346.6,189.37,346.6,189.37Z"/><path class="cls-2" d="M320.75,185.23l-.52.27,7.75,8.95-3.34,11.15.58.05,3.39-11.34Z"/><path class="cls-2" d="M336.49,192l-8.79-9.11-.66.12,8.83,9.16-2.95,12.68.62-.2Z"/><path class="cls-2" d="M321.12,196l0-.15-6.35-6.76-.44.35,6.16,6.56c-.75,2.75-1.79,6.51-2.31,8.27l.54.15C319.12,203.25,319.79,200.87,321.12,196Z"/><path class="cls-2" d="M309.53,193.68l-.42.38,3.21,3.68-1.86,4,.54.18,2-4.25Z"/><path class="cls-2" d="M341.46,199.59c.23-.25.45-.5.67-.76l1.18-8.52-4.71-6.13c-.32-.13-.65-.25-1-.37l5.11,6.66Z"/><path class="cls-2" d="M346.6,189.37c-3.05,1-6.13,1.86-9.22,2.71s-6.2,1.65-9.31,2.43-6.24,1.48-9.38,2.12-6.3,1.22-9.48,1.64c1.57-.34,3.14-.64,4.7-1s3.12-.69,4.68-1.06c3.12-.72,6.24-1.46,9.35-2.24s6.22-1.53,9.33-2.29Z"/><path class="cls-2" d="M410.89,243.47c-4.85-25.53,7.22-46.06,24.59-56,21.45-12.25,48.27-7.5,72.45-12.55-12.37,16.46-18,46.71-42.19,63.55C439.65,256.63,410.89,243.47,410.89,243.47Z"/><path class="cls-3" d="M477.63,227.72c.33-.38.65-.77,1-1.16l-27.68-13.95-3-30.33c-.49.14-1,.29-1.44.45l3.08,30.83Z"/><path class="cls-3" d="M432.72,226.93l30.35,13.3c.5-.3,1-.63,1.48-.95l-30.5-13.38-5.48-33.65-1.31,1.1Z"/><path class="cls-3" d="M466,202l0,.41,22.11,10c.25-.43.49-.86.73-1.29l-21.48-9.75c-.92-7.41-2.14-17.55-2.63-22.32l-1.46.17C463.61,182.45,464.35,188.89,466,202Z"/><path class="cls-3" d="M496.37,196.07l.63-1.33L485.55,189l.54-11.49-1.48.1L484,189.92Z"/><path class="cls-3" d="M413.16,213.59q-.46,1.24-.87,2.52l5.63,21.8,17.52,10.16c.9,0,1.82,0,2.75-.11l-19-11Z"/><path class="cls-3" d="M410.89,243.47c6.43-5.41,13-10.61,19.64-15.77s13.36-10.16,20.11-15.15,13.64-9.81,20.62-14.48,14-9.25,21.31-13.42c-3.46,2.38-7,4.68-10.38,7.12s-6.88,4.79-10.29,7.23q-10.25,7.29-20.39,14.74c-6.82,4.89-13.53,9.91-20.3,14.86Z"/><path class="cls-2" d="M382.62,168.17c-13.23,22.37-35.85,29.79-55.44,25.76-24.2-5-41.19-26.28-62.67-38.45,20.16-4.19,44.35-23.2,73.65-19.83C369.73,139.29,382.62,168.17,382.62,168.17Z"/><path class="cls-3" d="M322.12,135.89c-.5.06-1,.15-1.49.23l11.55,28.76-17.76,24.77,1.37.61,18.06-25.18Z"/><path class="cls-3" d="M355.3,166.16l-14-30c-.58-.1-1.16-.18-1.75-.27l14.06,30.2L335.5,194.93c.57,0,1.14,0,1.72,0Z"/><path class="cls-3" d="M313.86,162.89l.23-.34-10-22.15-1.39.5,9.67,21.5c-4.2,6.17-10,14.6-12.77,18.5l1.2.84C302.73,179.13,306.43,173.81,313.86,162.89Z"/><path class="cls-3" d="M287.14,147.26l-1.35.58,4.82,11.85-8,8.26,1.17.91,8.55-8.83Z"/><path class="cls-3" d="M361.17,189.09c.78-.41,1.56-.85,2.32-1.31l10.18-20.09-6.44-19.19c-.68-.59-1.4-1.17-2.13-1.75l7,20.83Z"/><path class="cls-3" d="M382.62,168.17c-8.4-.19-16.78-.63-25.16-1.14s-16.74-1.21-25.11-1.93-16.71-1.64-25-2.75-16.64-2.33-24.87-4c4.17.5,8.32,1.08,12.5,1.51s8.33,1,12.5,1.37q12.51,1.32,25,2.42c8.35.84,16.71,1.5,25.07,2.26Z"/><path class="cls-2" d="M388.47,232c8.63,24.51-.22,46.61-15.9,59-19.37,15.33-46.6,14.66-69.74,23.29,9.75-18.13,10.74-48.88,32.16-69.16C358.06,223.32,388.47,232,388.47,232Z"/><path class="cls-3" d="M324.85,257.6c-.27.43-.52.86-.78,1.29l29.46,9.64,7.56,29.53q.68-.31,1.35-.66l-7.68-30Z"/><path class="cls-3" d="M369.37,251.64l-32-8.59c-.45.37-.89.77-1.33,1.17l32.17,8.64,10.48,32.44c.38-.42.76-.85,1.13-1.29Z"/><path class="cls-3" d="M340.23,281.29l-.11-.4-23.37-6.6-.52,1.38,22.7,6.42c2,7.18,4.76,17,6,21.67l1.41-.38C345.52,300.25,343.82,294,340.23,281.29Z"/><path class="cls-3" d="M311.08,291.71l-.42,1.41,12.17,3.93L324,308.48l1.45-.31-1.27-12.23Z"/><path class="cls-3" d="M390.71,261.89c.19-.87.35-1.74.49-2.62l-8.85-20.71-18.84-7.41c-.89.15-1.8.32-2.71.52l20.44,8Z"/><path class="cls-3" d="M388.47,232c-5.54,6.31-11.27,12.45-17.05,18.54s-11.68,12.05-17.61,18-12,11.74-18.2,17.41-12.48,11.25-19.06,16.48c3.06-2.88,6.18-5.69,9.19-8.61s6.08-5.77,9.09-8.69q9-8.75,17.94-17.64c6-5.85,11.9-11.83,17.85-17.74Z"/><path class="cls-3" d="M518.8,156.93c-2.43,1.17-18,3.26-18,3.26s11.34-10.9,13.78-12.07a4.89,4.89,0,1,1,4.25,8.81Z"/><path class="cls-3" d="M508.58,277c-2.63-.59-16.14-8.64-16.14-8.64s15.66-1.5,18.29-.9a4.89,4.89,0,1,1-2.15,9.54Z"/><path class="cls-3" d="M513.79,140.68c-.78,1-7,5.42-7,5.42s2.46-7.23,3.25-8.27a2.37,2.37,0,1,1,3.79,2.85Z"/><path class="cls-3" d="M279.44,218c2.7,0,17.69,4.76,17.69,4.76s-14.92,5-17.62,5a4.89,4.89,0,1,1-.07-9.78Z"/><path class="cls-3" d="M244.65,133.3c2.64.57,16.22,8.5,16.22,8.5s-15.64,1.63-18.29,1.06a4.89,4.89,0,1,1,2.07-9.56Z"/><path class="cls-3" d="M277,234.85c1.16-.62,8.69-1.89,8.69-1.89s-5.32,5.48-6.48,6.09a2.37,2.37,0,1,1-2.21-4.2Z"/><path class="cls-3" d="M289.72,285.8c.87-1,7.45-4.84,7.45-4.84s-3,7-3.89,8a2.38,2.38,0,0,1-3.56-3.15Z"/><path class="cls-3" d="M239.54,150.93c1.16-.61,8.69-1.89,8.69-1.89s-5.32,5.48-6.48,6.09a2.37,2.37,0,1,1-2.21-4.2Z"/><path class="cls-3" d="M503.71,286.72c-.9-1-4.19-7.84-4.19-7.84s6.72,3.61,7.63,4.56a2.38,2.38,0,1,1-3.44,3.28Z"/><ellipse class="cls-1" cx="397.66" cy="325.8" rx="73.17" ry="30.71"/><path class="cls-4" d="M366,97.72c0,7.19-5.13,30.06-20.5,37.74,6.29,19.34,76.65,36.81,106-1.16-15.61-18.64-17.24-35.65-17.24-35.65Z"/><path class="cls-5" d="M421.7,145c3.52-.45,8.4,2.59,12.82,8.36,4.59,6,9.48,15.39,14.15,30.23,4.16,13.19,5.07,23.36,4.62,30-.85,12.36-13.12,15.06-17.46,5-1.13-2.63-4.5-13.82-7.36-24.09C424.64,182.24,410.7,146.44,421.7,145Z"/><path class="cls-5" d="M375.14,145c-3.52-.45-8.63,2.28-13.06,8.06-4.59,6-9.67,16.49-13.2,29.85s-4.23,24-3.77,30.66c.85,12.36,13.11,15.06,17.45,5,1.14-2.63,4.51-13.82,7.37-24.09C373.75,182.24,386.14,146.44,375.14,145Z"/><path class="cls-6" d="M421.7,145c0,10.15-8.9,26.53-23.16,26.53s-23.4-16.38-23.4-26.53c3.14-2.77,12.17-7,23.4-7S417.06,140.83,421.7,145Z"/><path class="cls-7" d="M425.76,247.85c5.26,6.87,8.05,10.42,13.2,17.69-14.26,7-25.45,26-28.09,34.93l-25.9.09c-1.34-5-11.82-26.77-30.49-31.45,5.68-7.64,11.06-15.68,16.53-21.26Z"/><path class="cls-8" d="M350.89,285.74c-4.61,7.38-13.13,24.66-4.38,30.42s17.74,1.61,11.29-2.08C360.8,304.41,350.89,285.74,350.89,285.74Z"/><path class="cls-9" d="M354.27,268.89c8.75-15.76,38.07-3.55,43,26.2,3.66,22.17,7.94,55-6.1,59-12.57,3.59-20.22-4.82-29.84-25.42C351,306.52,346.64,282.63,354.27,268.89Z"/><path class="cls-7" d="M397.25,295.09c-2.57-15.58-11.84-26.33-21.33-30.79,9.94,17.17,26.29,78.93,7.84,90.47a17.92,17.92,0,0,0,7.39-.66C405.19,350.1,400.91,317.26,397.25,295.09Z"/><path class="cls-10" d="M434.23,180.87c-1.4-10.57-7.07-16.11-12.56-35.92-.53-1.93-4.69-4.33-7.38-4.38-.89,16-8.45,20.93-16,20.94-5.95,0-14.06-6.44-12.49-21.68A22.75,22.75,0,0,0,374.94,145c-5.18,18.73-11.16,25.35-12.56,35.92-1.27,9.57,5.08,19.32,5.08,19.32s2.73,34.29,3.55,47.66c7.1,4.17,12.82,6.59,27,6.59s21.8-2.6,27.74-6.59c.82-13.37,3.39-47.66,3.39-47.66S435.5,190.44,434.23,180.87Z"/><path class="cls-11" d="M401.66,166c15.7-2.2,17-19.31,17.08-24a9.89,9.89,0,0,0-4.45-1.46c-.89,16-8.45,20.93-16,20.94-5.95,0-14.06-6.44-12.49-21.68a24.74,24.74,0,0,0-3.27.85C380.14,152.84,384.73,168.37,401.66,166Z"/><path class="cls-12" d="M369.79,201c5.33,4.19,16.37,5.43,24.07,1.51,3.68-1.63,5.63-1.74,9.4-.22,7.47,3,19.87,1.31,24.14-1.49-4.48,14.37-19.48,5.42-24,3.63s-6-1.7-9,.39C392.53,206.2,374.91,216.4,369.79,201Z"/><path class="cls-13" d="M377,114.34c2.52,5.34,2.78,9.58-.7,11.43s-11.38.32-13.9-5-1.74-11.19,1.73-13S374.51,109,377,114.34Z"/><path class="cls-13" d="M368.63,121.5c4.25,18.63,18.59,30.3,37.41,27.26C423.16,146,433.34,121,432.23,99S419.88,64,400.56,65.1c-27.22,1.56-32.77,16.2-33.5,40.86A59.72,59.72,0,0,0,368.63,121.5Z"/><path class="cls-4" d="M373.63,125.59c-2.5-6.54-2.5-23-1.31-27.83.12,5.95,3.22,12.13,3.22,12.13s-4.17-6.9.83-17.84c2.85,10.59,24.5,12.37,24.5,12.37s-13.44-2.86-14.51-9.87c9.66,7.3,28.78,8.77,34.73,5.91a36.79,36.79,0,0,1-12.41-6.71s13.89,5.22,19.5,7.09,7.61,4.2,7.61,4.2,3.64-40.9-24.07-47.49c-19.52-4.65-30.24,6.07-30.24,6.07s-9.89-1.77-16.22,9.24C353.27,93.73,370.93,125.41,373.63,125.59Z"/><path class="cls-13" d="M422.76,109.27c-1.8,5.63-1.5,9.86,2.19,11.24s11.32-1.18,13.12-6.81.26-11.31-3.43-12.7S424.55,103.64,422.76,109.27Z"/><path class="cls-14" d="M399.11,123.29c2.37-.48,4.37-.09,4.82,1.67S402,127.8,400,128,397.26,123.66,399.11,123.29Z"/><path class="cls-15" d="M398.06,123.62a7.8,7.8,0,0,1,2.88-.59,3.79,3.79,0,0,1,2.84,1.08,1.66,1.66,0,0,1,.34,1.6,2.58,2.58,0,0,1-.37.72,7.13,7.13,0,0,1-.55.55,7.33,7.33,0,0,1-2.67,1.25,10.91,10.91,0,0,0,2.38-1.57c.68-.61,1-1.57.44-2.19a3.67,3.67,0,0,0-2.43-1A12,12,0,0,0,398.06,123.62Z"/><path class="cls-15" d="M391.65,140.25a12.42,12.42,0,0,1,2.87-2.63,10.1,10.1,0,0,1,3.68-1.51,9.21,9.21,0,0,1,4,.15,10.55,10.55,0,0,1,3.53,1.68A21.81,21.81,0,0,0,402,137a10.71,10.71,0,0,0-3.66.06A17.87,17.87,0,0,0,391.65,140.25Z"/><path class="cls-16" d="M405.08,107.49c-.38,2.85-2,11.2,6,11.87s6.11-9,6.11-9S408.74,107.86,405.08,107.49Z"/><path class="cls-17" d="M410.84,117.46c0,.77-.75,1.43-1.75,1.48a1.66,1.66,0,0,1-1.9-1.31"/><path class="cls-18" d="M406.25,107.51c7.5,1.17,14.48,3.07,9.65,2.67S401.3,106.74,406.25,107.51Z"/><path class="cls-19" d="M392.79,107.49c.38,2.85,2,11.2-6,11.87s-6.11-9-6.11-9S389.13,107.86,392.79,107.49Z"/><path class="cls-17" d="M390.43,117.46c0,.77-.75,1.43-1.76,1.48a1.65,1.65,0,0,1-1.89-1.31"/><path class="cls-18" d="M391.62,107.51c-7.5,1.17-14.48,3.07-9.65,2.67S396.57,106.74,391.62,107.51Z"/><path class="cls-20" d="M384,121.49c0,.62-1.6,1.12-3.57,1.12s-3.58-.5-3.58-1.12,1.6-1.12,3.58-1.12S384,120.87,384,121.49Z"/><path class="cls-20" d="M421.62,121.49c0,.62-1.6,1.12-3.57,1.12s-3.57-.5-3.57-1.12,1.6-1.12,3.57-1.12S421.62,120.87,421.62,121.49Z"/><path class="cls-9" d="M441.63,268.46c-9-15.61-38.12-2.93-42.55,26.89-3.3,22.23-7.05,55.14,7.05,58.92,12.63,3.38,20.14-5.15,29.42-25.91C445.53,306,449.48,282.08,441.63,268.46Z"/><path class="cls-8" d="M444.92,285.74c4.61,7.38,13.13,24.66,4.38,30.42s-17.74,1.61-11.29-2.08C435,304.41,444.92,285.74,444.92,285.74Z"/><path class="cls-7" d="M441.63,268.46a13,13,0,0,0-5.26-5.13c.05,19.37-9.3,80.4-30.41,90.88a1.15,1.15,0,0,1,.17.06c12.63,3.38,20.14-5.15,29.42-25.91C445.53,306,449.48,282.08,441.63,268.46Z"/><path class="cls-21" d="M366.67,215.44c2.92-11,24.09-56.65,26.64-68.27s-13.84-14.64-16.23-.32c-2.74,16.45-27.69,42-30.59,68.14C345.28,225.92,362.69,230.48,366.67,215.44Z"/><path class="cls-21" d="M393.62,106.18c0-2-.85-2.5-1.81-2.51-1.29,0-1.8,1.47-1.89,2.42-.65,7.34-2.18,19-2.18,19,.12-3.85.62-15.66.79-19.81.06-1.45-.61-2.91-1.91-3s-2.15,1-2.26,2.68c-.64,9.43-1.25,20.1-1.25,20.1-.08-4.82-.29-11.12-.33-16.19,0-2.61-.44-4.65-2.27-4.51-1.22.09-2.16,1.37-2.22,3.87-.19,7.17-.61,19.43-.61,19.43-.43-2.82-1.65-5.77-3.59-6.74a2.06,2.06,0,0,0-3,2.64,19.06,19.06,0,0,1,2,8c.12,2.38.51,7.64,1.87,11.1,1.92,4.85,1.82,5.44,1,9.46-.57,2.93,13.69,2.8,14.28,2,1.73-2.23,4-7.61,4.62-12.54,0,0,2.31-23.74,2.49-29.28.06-1.91-1-2.36-1.88-2.29s-1.38.87-1.54,2.6c-.36,3.89-1.15,10.46-1.7,13.24C392.28,126,393.45,113.22,393.62,106.18Z"/><path class="cls-21" d="M404.26,106.18c-.05-2,.84-2.5,1.81-2.51,1.28,0,1.8,1.47,1.88,2.42.66,7.34,2.19,19,2.19,19-.13-3.85-.62-15.66-.79-19.81-.06-1.45.6-2.91,1.9-3s2.15,1,2.27,2.68c.63,9.43,1.24,20.1,1.24,20.1.08-4.82.3-11.12.34-16.19,0-2.61.43-4.65,2.26-4.51,1.22.09,2.16,1.37,2.23,3.87.18,7.17.61,19.43.61,19.43.42-2.82,1.64-5.77,3.58-6.74a2.06,2.06,0,0,1,3,2.64,19,19,0,0,0-2,8c-.12,2.38-.5,7.64-1.87,11.1-1.92,4.85-1.82,5.44-1,9.46.57,2.93-13.69,2.8-14.28,2-1.73-2.23-4-7.61-4.62-12.54,0,0-2.3-23.74-2.49-29.28-.06-1.91,1-2.36,1.88-2.29s1.38.87,1.54,2.6c.37,3.89,1.15,10.46,1.7,13.24C405.59,126,404.43,113.22,404.26,106.18Z"/><path class="cls-21" d="M431.57,215.44c-2.92-11-24.1-56.65-26.64-68.27s13.84-14.64,16.23-.32c2.74,16.45,27.69,42,30.58,68.14C453,225.92,435.55,230.48,431.57,215.44Z"/><path class="cls-8" d="M385.45,259s15.43,3,29.08-1.53C406.94,264.84,393.12,263.65,385.45,259Z"/><path class="cls-8" d="M392.07,265.93s8.41,1.63,15.84-.83C403.77,269.09,396.25,268.44,392.07,265.93Z"/><path class="cls-4" d="M422.35,95s6.08,12,5.57,22.53c3.42-3.92,2.66-19.37,2.28-19.87S422.35,95,422.35,95Z"/><path class="cls-12" d="M413.87,191.38c0,.73-6.88,1.32-15.37,1.32s-15.38-.59-15.38-1.32,6.89-1.32,15.38-1.32S413.87,190.65,413.87,191.38Z"/><path class="cls-12" d="M406.8,185.67c0,.39-3.72.71-8.3.71s-8.3-.32-8.3-.71,3.71-.71,8.3-.71S406.8,185.28,406.8,185.67Z"/><path class="cls-2" d="M442.92,44.8l.23-.55.57-.18q3.4-1.09,6.82-2.09c1-2.13,2-4.24,3.11-6.33l.19-.37.29-.07c1.24-.31,2.48-.59,3.73-.87.62-.14,1.26-.25,1.88-.38s1.26-.24,1.89-.35c-.57.29-1.15.57-1.73.83s-1.16.54-1.75.79c-1,.45-2.09.89-3.15,1.32-.78,2.32-1.63,4.61-2.51,6.89l-.18.47-.55.2c-2.21.79-4.43,1.54-6.65,2.27-.43,1-.85,2-1.29,2.95-.51,1.16-1.05,2.32-1.58,3.48l-.24.53-.49.14c-1.23.34-2.45.69-3.68,1L436,55c-.52.14-1,.26-1.57.39-.52,1-1.05,2-1.6,3-.3.56-.63,1.11-.94,1.67s-.65,1.1-1,1.65c.16-.62.33-1.24.51-1.85s.36-1.23.55-1.84c.39-1.22.78-2.43,1.2-3.64l.1-.29.39-.15c.59-.24,1.17-.49,1.77-.72l1.78-.69,3-1.12c.41-1,.81-2.06,1.23-3.08C441.92,47.14,442.43,46,442.92,44.8Z"/><path class="cls-2" d="M414,22.73l0-.79.59-.54q3.45-3.18,7-6.26c0-3.09.07-6.18.21-9.28l0-.55.31-.24c1.3-1.06,2.63-2.08,4-3.09.66-.52,1.35-1,2-1.5s1.37-1,2.07-1.46q-.8,1-1.62,2c-.55.63-1.09,1.28-1.65,1.9-1,1.12-2,2.23-3,3.32.35,3.2.6,6.41.81,9.62l.05.66-.55.54c-2.2,2.17-4.43,4.29-6.68,6.39,0,1.41.08,2.82.09,4.23,0,1.68,0,3.35,0,5v.77l-.5.44c-1.27,1.09-2.55,2.18-3.83,3.25l-1.94,1.6L409.69,40c-.06,1.49-.14,3-.25,4.48,0,.84-.13,1.68-.2,2.52s-.16,1.68-.26,2.52c-.15-.84-.29-1.67-.41-2.5s-.26-1.67-.35-2.5c-.22-1.67-.42-3.34-.59-5l0-.4.38-.4c.57-.61,1.13-1.23,1.72-1.83l1.74-1.81c1-1,2-2,3-3-.08-1.45-.17-2.9-.23-4.35C414.11,26.07,414.06,24.4,414,22.73Z"/><path class="cls-2" d="M371.22,30.31l0-.79-.62-.5q-3.63-3-7.35-5.83c-.2-3.08-.44-6.17-.77-9.25l-.06-.54-.32-.23c-1.37-1-2.76-1.91-4.16-2.84-.69-.48-1.41-.92-2.11-1.38s-1.43-.89-2.16-1.33c.57.63,1.15,1.25,1.73,1.85s1.17,1.21,1.77,1.8q1.59,1.59,3.22,3.13c-.15,3.22-.21,6.43-.22,9.65v.66l.58.51c2.32,2,4.68,4,7.06,6,.05,1.41.09,2.82.16,4.23.07,1.68.17,3.35.27,5l0,.76.53.41c1.34,1,2.67,2,4,3l2,1.48c.57.42,1.16.82,1.74,1.23.15,1.49.32,3,.52,4.45.09.84.23,1.67.35,2.5s.26,1.67.41,2.5c.1-.84.19-1.68.26-2.52s.16-1.67.2-2.51c.12-1.68.22-3.36.28-5l0-.4-.4-.38c-.61-.57-1.21-1.16-1.83-1.73l-1.85-1.7q-1.57-1.42-3.18-2.83c0-1.45,0-2.9,0-4.36C371.31,33.65,371.25,32,371.22,30.31Z"/><path class="cls-2" d="M340.28,57.44l-.31-.55-.62-.12c-2.44-.46-4.89-.9-7.34-1.29-1.31-2.09-2.64-4.15-4-6.18l-.25-.36-.31,0c-1.32-.16-2.65-.3-4-.42-.66-.07-1.33-.11-2-.16s-1.33-.09-2-.12c.64.22,1.27.44,1.91.64s1.28.41,1.92.59c1.14.34,2.29.67,3.43,1,1.11,2.3,2.29,4.58,3.49,6.83l.25.47.6.13c2.39.54,4.79,1,7.19,1.52.57,1,1.13,1.94,1.71,2.89.68,1.15,1.38,2.28,2.08,3.41l.32.52.53.08c1.31.21,2.63.41,3.95.6l2,.26c.56.08,1.12.14,1.68.21.66,1,1.35,2,2,2.92.39.54.8,1.07,1.19,1.61s.82,1.07,1.23,1.6c-.24-.63-.5-1.25-.76-1.87s-.53-1.23-.81-1.83c-.56-1.22-1.12-2.43-1.71-3.63l-.14-.29-.42-.11-1.93-.52-1.94-.48c-1.09-.28-2.19-.53-3.29-.79-.55-1-1.1-2-1.67-3C341.61,59.74,340.94,58.59,340.28,57.44Z"/><circle class="cls-3" cx="472.44" cy="105.52" r="1.32"/><circle class="cls-3" cx="497.17" cy="97.45" r="2.25"/><path class="cls-3" d="M500.48,118.22a.8.8,0,1,1-.8-.8A.8.8,0,0,1,500.48,118.22Z"/><path class="cls-3" d="M304.87,93.87A.89.89,0,1,1,304,93,.89.89,0,0,1,304.87,93.87Z"/><circle class="cls-3" cx="303.28" cy="79.76" r="1.94"/><path class="cls-3" d="M343.31,81.87a1.94,1.94,0,1,1-1.94-1.93A1.94,1.94,0,0,1,343.31,81.87Z"/><path class="cls-3" d="M278.41,192.8a.35.35,0,0,1-.35.36.36.36,0,0,1,0-.71A.35.35,0,0,1,278.41,192.8Z"/><circle class="cls-3" cx="236.44" cy="202.68" r="1.76"/><path class="cls-3" d="M256.19,226.49a1.94,1.94,0,1,1-1.94-1.94A1.94,1.94,0,0,1,256.19,226.49Z"/><circle class="cls-3" cx="257.96" cy="189.63" r="1.41"/><path class="cls-3" d="M299.22,262.46a1.24,1.24,0,1,1-1.23-1.23A1.24,1.24,0,0,1,299.22,262.46Z"/><circle class="cls-3" cx="229.25" cy="259.84" r="1.59"/><path class="cls-3" d="M287.09,342.23a1.24,1.24,0,1,1-1.23-1.23A1.23,1.23,0,0,1,287.09,342.23Z"/><circle class="cls-3" cx="277" cy="270.05" r="1.41"/><path class="cls-3" d="M326,321.37a1.94,1.94,0,1,1-1.94-1.94A1.94,1.94,0,0,1,326,321.37Z"/><path class="cls-3" d="M482.82,298.8a1.76,1.76,0,1,1,0-2.49A1.76,1.76,0,0,1,482.82,298.8Z"/><path class="cls-3" d="M497.8,313.78a2.47,2.47,0,1,1-2.47-2.47A2.47,2.47,0,0,1,497.8,313.78Z"/><circle class="cls-3" cx="498.86" cy="291.91" r="1.76"/><path class="cls-3" d="M550.35,268.46a1.24,1.24,0,0,1-2.47,0,1.24,1.24,0,1,1,2.47,0Z"/><path class="cls-3" d="M528.84,200.21a.7.7,0,0,1-.71.7.7.7,0,0,1-.7-.7.7.7,0,0,1,.7-.71A.71.71,0,0,1,528.84,200.21Z"/><path class="cls-3" d="M576.1,178.16a2.29,2.29,0,1,1-2.29-2.29A2.3,2.3,0,0,1,576.1,178.16Z"/><path class="cls-3" d="M557.05,211.14a2.12,2.12,0,1,1-2.11-2.11A2.11,2.11,0,0,1,557.05,211.14Z"/><path class="cls-3" d="M546.12,131.78a1.06,1.06,0,1,1-1.06-1.05A1.05,1.05,0,0,1,546.12,131.78Z"/><path class="cls-3" d="M565.52,105.68a2.12,2.12,0,1,1-2.12-2.11A2.12,2.12,0,0,1,565.52,105.68Z"/><path class="cls-3" d="M451.24,73.94a1.06,1.06,0,1,1-1.06-1.06A1.06,1.06,0,0,1,451.24,73.94Z"/><path class="cls-3" d="M473.46,55.42a1.94,1.94,0,1,1-1.94-1.94A1.94,1.94,0,0,1,473.46,55.42Z"/></svg>