 <svg  version="1.0" xmlns="http://www.w3.org/2000/svg"  width="300.000000pt" height="86.000000pt" viewBox="0 0 300.000000 86.000000"  preserveAspectRatio="xMidYMid meet">  <g transform="translate(0.000000,86.000000) scale(0.100000,-0.100000)" fill="#00ff00" stroke="none"> <path d="M575 693 c-122 -64 -162 -211 -87 -319 18 -24 32 -47 32 -49 0 -12 -97 -3 -114 10 -26 19 -76 19 -104 -1 -20 -14 -22 -23 -22 -108 0 -77 3 -96 18 -109 24 -22 85 -22 118 -1 18 13 36 15 72 10 146 -21 141 -22 243 29 95 48 139 79 139 100 0 13 -38 50 -57 56 -8 3 0 22 24 56 79 114 44 261 -78 324 -47 24 -141 25 -184 2z m160 -32 c125 -57 151 -211 49 -300 -85 -75 -207 -58 -271 38 -62 92 -24 214 82 262 51 23 89 23 140 0z m-340 -436 l0 -90 -40 0 -40 0 -3 79 c-4 102 -1 108 45 104 l38 -3 0 -90z m183 23 c49 -38 42 -56 -13 -34 -43 18 -65 20 -65 7 0 -6 25 -18 54 -27 59 -19 86 -11 86 25 0 22 179 66 197 47 10 -9 -12 -24 -105 -70 l-119 -59 -54 14 c-30 7 -72 13 -94 14 l-40 0 -3 58 -3 57 59 0 c50 0 64 -4 100 -32z"/> <path d="M631 584 c-19 -24 -23 -25 -57 -14 -48 16 -58 4 -58 -64 0 -131 132 -209 233 -137 45 32 75 102 67 156 -9 54 -16 60 -62 45 -32 -11 -36 -10 -55 14 -11 14 -27 26 -34 26 -7 0 -23 -12 -34 -26z m84 -89 c7 -42 -6 -88 -32 -118 -15 -16 -17 -16 -35 0 -24 22 -41 87 -32 126 3 18 16 45 27 61 l20 29 23 -29 c13 -16 26 -47 29 -69z m-123 -4 c-3 -32 1 -58 12 -79 21 -40 20 -45 -3 -32 -41 21 -67 88 -63 157 2 20 5 21 30 12 27 -9 29 -12 24 -58z m198 -22 c-10 -37 -65 -107 -76 -96 -3 3 2 20 11 38 12 22 16 47 13 80 -5 45 -3 49 21 57 23 8 27 6 33 -17 4 -14 3 -42 -2 -62z"/> <path d="M1730 513 c-19 -3 -45 -14 -57 -25 -12 -11 -37 -21 -57 -23 -19 -2 -40 -6 -45 -9 -5 -4 -30 -1 -55 6 -39 10 -50 10 -81 -5 -33 -16 -37 -16 -61 0 -22 14 -34 15 -90 4 -44 -8 -70 -8 -83 -1 -11 5 -39 9 -63 8 -33 -2 -52 4 -73 20 -34 27 -47 28 -68 4 -25 -28 -24 -202 1 -224 22 -20 111 -20 134 -1 14 13 19 13 40 0 28 -18 110 -16 132 2 14 12 19 11 36 -4 17 -15 24 -16 46 -6 19 8 30 9 40 0 13 -10 49 -12 142 -7 34 2 49 9 66 31 l22 28 14 -27 c8 -14 25 -30 38 -35 27 -10 94 -4 123 12 15 7 24 7 34 -1 8 -7 57 -10 132 -9 65 0 141 1 168 2 28 0 66 0 85 -1 19 0 43 6 52 15 17 15 20 15 36 0 21 -19 43 -22 58 -7 7 7 20 6 40 -5 35 -18 52 -18 83 -1 21 11 30 11 60 -1 28 -12 43 -13 73 -4 43 13 49 21 56 70 9 77 6 94 -28 124 -28 25 -38 28 -74 23 -54 -8 -75 -9 -112 -1 -21 5 -42 1 -63 -9 -28 -15 -33 -15 -55 0 -19 12 -37 14 -73 9 -100 -14 -201 0 -226 31 -24 31 -41 30 -67 -3 -18 -23 -28 -27 -79 -27 -45 0 -65 6 -86 22 -15 12 -33 22 -41 22 -7 0 -18 2 -26 3 -7 2 -29 2 -48 0z m330 -128 c0 -87 -3 -105 -15 -105 -12 0 -15 18 -15 105 0 87 3 105 15 105 12 0 15 -18 15 -105z m-1010 -5 c0 -93 -1 -100 -20 -100 -19 0 -20 7 -20 100 0 93 1 100 20 100 19 0 20 -7 20 -100z m771 90 c25 -14 26 -65 2 -75 -17 -6 -17 -7 0 -16 11 -7 17 -22 17 -44 0 -43 -20 -55 -92 -55 l-53 0 0 100 0 100 53 0 c29 0 62 -5 73 -10z m-621 -50 c16 -16 20 -33 20 -80 0 -53 -2 -60 -20 -60 -16 0 -19 8 -22 63 -3 59 -4 62 -28 62 -24 0 -25 -3 -28 -62 -3 -55 -6 -63 -22 -63 -18 0 -20 7 -20 76 0 75 0 76 24 72 14 -3 31 -1 38 3 21 14 37 10 58 -11z m162 8 c10 -9 17 -36 21 -80 4 -62 3 -68 -14 -68 -17 0 -19 8 -19 60 0 47 -4 62 -16 67 -33 13 -49 -11 -47 -71 2 -49 0 -56 -18 -56 -17 0 -19 7 -19 75 0 60 3 75 15 75 8 0 15 -5 15 -12 0 -8 6 -6 17 5 20 20 43 22 65 5z m164 -13 c16 -16 24 -34 22 -48 -3 -19 -9 -22 -53 -23 -27 0 -49 -4 -47 -7 1 -4 2 -11 2 -16 0 -14 40 -20 67 -10 21 8 24 6 21 -8 -2 -13 -14 -19 -43 -21 -52 -4 -75 14 -82 65 -5 35 -2 45 20 67 33 33 61 33 93 1z m80 10 c5 -13 8 -13 21 0 20 21 43 19 43 -4 0 -14 -8 -21 -27 -23 -27 -3 -28 -6 -31 -60 -2 -47 -6 -58 -20 -58 -15 0 -17 10 -15 77 1 43 2 79 3 81 1 9 22 -1 26 -13z m366 3 c11 -9 17 -34 20 -80 3 -60 2 -68 -14 -68 -10 0 -18 5 -18 11 0 8 -4 8 -14 0 -8 -7 -27 -11 -43 -9 -22 2 -29 9 -31 31 -4 37 10 53 54 62 49 9 38 31 -15 28 -43 -2 -53 9 -23 26 24 14 65 13 84 -1z m226 -4 c19 -13 22 -24 22 -80 0 -50 -3 -64 -15 -64 -8 0 -15 5 -15 12 0 9 -3 9 -12 0 -7 -7 -24 -12 -38 -12 -32 0 -50 17 -50 46 0 28 16 40 63 48 51 9 43 31 -12 30 -27 0 -41 4 -41 12 0 25 66 31 98 8z m172 -4 c16 -16 20 -33 20 -80 0 -53 -2 -60 -20 -60 -16 0 -19 8 -22 63 -3 59 -4 62 -28 62 -24 0 -25 -3 -28 -62 -3 -55 -6 -63 -22 -63 -18 0 -20 7 -20 75 0 69 2 75 21 75 13 0 18 -4 13 -12 -4 -6 3 -4 17 5 31 22 45 21 69 -3z m138 14 c12 -4 22 -13 22 -21 0 -10 -6 -12 -20 -8 -39 12 -60 -3 -60 -45 0 -46 21 -63 58 -49 20 8 23 6 20 -8 -2 -13 -14 -19 -41 -21 -54 -5 -67 10 -67 74 0 43 4 56 22 68 25 18 32 19 66 10z m150 -10 c16 -11 22 -25 22 -51 l0 -35 -50 4 c-36 2 -50 -1 -50 -10 0 -20 46 -33 76 -22 22 9 25 7 22 -7 -2 -13 -15 -19 -47 -21 -58 -4 -81 17 -81 75 0 71 54 105 108 67z"/> <path d="M1730 422 c0 -28 1 -29 38 -23 28 5 37 11 37 26 0 16 -8 21 -37 23 -36 3 -38 2 -38 -26z"/> <path d="M1730 340 c0 -30 2 -31 38 -28 32 3 37 6 37 28 0 22 -5 25 -37 28 -36 3 -38 2 -38 -28z"/> <path d="M1450 390 c-10 -18 -8 -20 30 -20 41 0 49 7 28 28 -18 18 -46 14 -58 -8z"/> <path d="M1930 350 c-35 -8 -40 -40 -5 -40 24 0 41 19 33 38 -1 4 -14 6 -28 2z"/> <path d="M2155 350 c-43 -7 -47 -40 -5 -40 18 0 33 6 36 15 9 24 1 31 -31 25z"/> <path d="M2586 395 c-9 -25 -9 -25 30 -25 28 0 35 3 32 18 -4 23 -53 29 -62 7z"/> </g> </svg> 